<svg xmlns="http://www.w3.org/2000/svg" xmlns:xlink="http://www.w3.org/1999/xlink" version="1.1" x="0px" y="0px" viewBox="0 0 1024 1280" style="enable-background:new 0 0 1024 1024;" xml:space="preserve"><g><g><path d="M294.6,673c-20.1-23.2-40.1-46.5-60.2-69.7c-31.7-36.7-63.4-73.5-95.1-110.2c-17.6-20.4-31-41.1-62.9-41.1    c14.1,34.1,28.3,68.3,42.4,102.4c19.8-23,39.7-46,59.5-69c31.4-36.4,62.8-72.8,94.2-109.2c7.3-8.4,14.5-16.8,21.8-25.3    c10.5-12.2,17.6-25.9,17.6-42.4c0-14.7-6.5-32.3-17.6-42.4C283,255.6,268,247.9,252,248.6c-15.2,0.7-32.1,5.6-42.4,17.6    c-19.8,23-39.7,46-59.5,69c-31.4,36.4-62.8,72.8-94.2,109.2c-7.3,8.4-14.5,16.8-21.8,25.3c-6.7,7.8-12.7,16.5-15.4,26.5    c-0.7,5.3-1.4,10.6-2.1,16c-0.3,8.3,1.4,16,5.2,23.1c1.4,5.1,4,9.5,7.7,13.2c2.7,4.5,6.3,8.1,10.8,10.8    C50.6,567.2,63,572,76.5,572c0.1,0,0.1,0,0.2,0c-14.1-5.9-28.3-11.7-42.4-17.6c19.8,23,39.7,46,59.5,69    c31.4,36.4,62.8,72.8,94.2,109.2c7.3,8.4,14.5,16.8,21.8,25.3c9.6,11.1,28.2,17.6,42.4,17.6c14.7,0,32.3-6.5,42.4-17.6    c10.5-11.4,18.3-26.4,17.6-42.4c-0.7-5.3-1.4-10.6-2.1-16C307.2,689.3,302,680.5,294.6,673L294.6,673z"/><path d="M445.9,829.8c8.2-20.1,16.5-40.2,24.7-60.3c19.7-48.1,39.5-96.1,59.2-144.2    c23.9-58.3,47.8-116.5,71.8-174.8c20.6-50.2,41.2-100.4,61.8-150.5c10-24.3,20.4-48.5,29.9-72.9c0.1-0.3,0.3-0.7,0.4-1    c2.5-8,2.9-16,1.1-23.9c-0.4-8-2.7-15.4-7.1-22.3c-7.3-12.4-21.6-24.3-35.9-27.6c-15.4-3.5-32.6-2.7-46.2,6    c-4,3.1-8.1,6.3-12.1,9.4c-7.4,7.5-12.6,16.3-15.4,26.5c-8.2,20.1-16.5,40.2-24.7,60.3c-19.7,48.1-39.5,96.1-59.2,144.2    c-23.9,58.3-47.8,116.5-71.8,174.8c-20.6,50.2-41.2,100.4-61.8,150.5c-10,24.3-20.4,48.5-29.9,72.9c-0.1,0.3-0.3,0.7-0.4,1    c-2.5,8-2.9,16-1.1,23.9c0.4,8,2.7,15.4,7.1,22.3c7.3,12.4,21.6,24.3,35.9,27.6c15.4,3.5,32.6,2.7,46.2-6c4-3.1,8.1-6.3,12.1-9.4    C437.9,848.8,443.1,840,445.9,829.8L445.9,829.8z"/><path d="M814.2,757.9c19.8-23,39.7-46,59.5-69c31.4-36.4,62.8-72.8,94.2-109.2c7.3-8.4,14.5-16.8,21.8-25.3    c-14.1,5.9-28.3,11.7-42.4,17.6c0.1,0,0.1,0,0.2,0c10.1,0,21.6-3.1,30.3-8.2c11.3-6.6,19.5-16.8,24.5-28.7    c2.7-4.7,4.1-9.7,4.1-15.1c1.4-5.3,1.4-10.6,0-16c0-5.4-1.4-10.5-4.1-15.1c-2.4-7.4-6.6-13.9-12.4-19.3    c-19.8-23-39.6-46-59.5-68.9c-31.5-36.5-62.9-72.9-94.4-109.4c-7.2-8.4-14.4-16.7-21.7-25.1c-9.6-11.1-28.2-17.6-42.4-17.6    c-14.7,0-32.3,6.5-42.4,17.6c-10.5,11.4-18.3,26.4-17.6,42.4c0.7,5.3,1.4,10.6,2.1,16c2.9,10.2,8,19,15.4,26.5    c19.8,23,39.6,46,59.5,68.9c31.5,36.5,62.9,72.9,94.4,109.4c7.2,8.4,14.4,16.7,21.7,25.1c14.1-34.1,28.3-68.3,42.4-102.4    c-30.3,0-42.5,17.4-58.9,36.5c-13.8,16-27.6,32-41.4,48c-31.9,37-63.9,74-95.8,111c-7.3,8.5-14.7,17-22,25.5    c-10.5,12.2-17.6,25.9-17.6,42.4c0,14.7,6.5,32.3,17.6,42.4c11.4,10.5,26.4,18.3,42.4,17.6C787,774.7,803.9,769.8,814.2,757.9    L814.2,757.9z"/></g></g></svg>